<?xml version="1.0" encoding="utf-8"?>
<!-- Generator: Adobe Illustrator 21.1.0, SVG Export Plug-In . SVG Version: 6.00 Build 0)  -->
<svg version="1.1" id="Layer_1" xmlns="http://www.w3.org/2000/svg" xmlns:xlink="http://www.w3.org/1999/xlink" x="0px" y="0px"
	 viewBox="0 0 32 32" style="enable-background:new 0 0 32 32;" xml:space="preserve">
<style type="text/css">
	.st0{fill:#4AA26D;}
	.st1{fill:#FFFFFF;}
</style>
<g>
	<path class="st0" d="M1.8,22.8v2.6c0,0.6,0.5,1.1,1.1,1.1c0.3,0,4.3-2.1,7.4-3.8c0.7-0.4,1.5-0.6,2.3-0.6h15.9c1,0,1.7-0.8,1.7-1.7
		V8.7c0-1-0.8-1.7-1.7-1.7h-25c-1,0-1.7,0.8-1.7,1.7v11.7L1.8,22.8z"/>
</g>
<g>
	<path class="st1" d="M9.3,16.4c-0.1,0-0.2,0-0.2-0.1L8,14.6v2.6c0,0.1-0.1,0.3-0.2,0.3h-1c-0.1,0-0.3-0.1-0.3-0.3v-5.1
		c0-0.1,0.1-0.3,0.3-0.3h0.9c0.1,0,0.2,0,0.2,0.1c0,0,0.1,0.1,0.2,0.3c0.2,0.3,0.5,0.8,1.2,1.9c0.6-1,1-1.6,1.2-1.9
		c0.1-0.2,0.2-0.3,0.2-0.3c0-0.1,0.2-0.1,0.2-0.1H12c0.1,0,0.3,0.1,0.3,0.3v5.1c0,0.1-0.1,0.3-0.3,0.3h-1c-0.2,0-0.2-0.1-0.2-0.3
		v-2.6l-1.1,1.7c0,0.1-0.1,0.1-0.2,0.1H9.3z"/>
	<path class="st1" d="M16.9,16.4c-0.1,0-0.2,0-0.2-0.1l-1.1-1.7v2.6c0,0.1-0.1,0.3-0.2,0.3h-1c-0.1,0-0.3-0.1-0.3-0.3v-5.1
		c0-0.1,0.1-0.3,0.3-0.3h0.9c0.1,0,0.2,0,0.2,0.1c0,0,0.1,0.1,0.2,0.3c0.2,0.3,0.5,0.8,1.2,1.9c0.6-1,1-1.6,1.2-1.9
		c0.1-0.2,0.2-0.3,0.2-0.3c0-0.1,0.2-0.1,0.2-0.1h0.9c0.1,0,0.3,0.1,0.3,0.3v5.1c0,0.1-0.1,0.3-0.3,0.3h-1c-0.2,0-0.2-0.1-0.2-0.3
		v-2.6l-1.1,1.7c0,0.1-0.1,0.1-0.2,0.1H16.9z"/>
	<path class="st1" d="M21.4,13.4c0-1,0.8-1.7,2.1-1.7c1.3,0,2.4,0.5,2.4,1.7c0,0.1-0.1,0.3-0.3,0.3h-0.9c-0.2,0-0.3-0.1-0.3-0.3
		C24.3,13,24,13,23.5,13c-0.4,0-0.6,0.2-0.6,0.4c0,0.7,3.1,0.7,3.1,2.5c0,1.2-1,1.7-2.3,1.7c-1.3,0-2.3-0.6-2.3-1.7
		c0-0.1,0.1-0.3,0.3-0.3h0.9c0.2,0,0.3,0.1,0.3,0.3c0.1,0.4,0.5,0.5,0.9,0.5c0.4,0,0.8,0,0.8-0.4C24.5,15.1,21.4,15.3,21.4,13.4z"/>
</g>
</svg>
